<svg width="21" height="20" viewBox="0 0 21 20" fill="none" xmlns="http://www.w3.org/2000/svg">
<path d="M10.1169 9.86678C10.1169 10.2534 10.4303 10.5668 10.8169 10.5668C11.2035 10.5668 11.5169 10.2534 11.5169 9.86678C11.5169 9.48018 11.2035 9.16678 10.8169 9.16678C10.4303 9.16678 10.1169 9.48018 10.1169 9.86678Z" fill="white" stroke="white" stroke-width="1.16667" stroke-linecap="round" stroke-linejoin="round"/>
<path d="M15.9499 9.86678C15.9499 10.2534 16.2633 10.5668 16.6499 10.5668C17.0365 10.5668 17.3499 10.2534 17.3499 9.86678C17.3499 9.48018 17.0365 9.16678 16.6499 9.16678C16.2633 9.16678 15.9499 9.48018 15.9499 9.86678Z" fill="white" stroke="white" stroke-width="1.16667" stroke-linecap="round" stroke-linejoin="round"/>
<path d="M4.28341 9.86678C4.28341 10.2534 4.59681 10.5668 4.98341 10.5668C5.37001 10.5668 5.68341 10.2534 5.68341 9.86678C5.68341 9.48018 5.37001 9.16678 4.98341 9.16678C4.59681 9.16678 4.28341 9.48018 4.28341 9.86678Z" fill="white" stroke="white" stroke-width="1.16667" stroke-linecap="round" stroke-linejoin="round"/>
</svg>
